<?xml version="1.0" encoding="UTF-8" standalone="no"?>
<svg
   width="66"
   height="23"
   viewBox="0 0 66 23"
   fill="none"
   version="1.1"
   id="svg7"
   sodipodi:docname="green6.h.19933a7a.svg"
   inkscape:version="1.4.4 (dcaf3e7, 2026-05-05)"
   xmlns:inkscape="http://www.inkscape.org/namespaces/inkscape"
   xmlns:sodipodi="http://sodipodi.sourceforge.net/DTD/sodipodi-0.dtd"
   xmlns="http://www.w3.org/2000/svg"
   xmlns:svg="http://www.w3.org/2000/svg">
  <sodipodi:namedview
     id="namedview7"
     pagecolor="#ffffff"
     bordercolor="#000000"
     borderopacity="0.25"
     inkscape:showpageshadow="2"
     inkscape:pageopacity="0.0"
     inkscape:pagecheckerboard="0"
     inkscape:deskcolor="#d1d1d1"
     showguides="true"
     inkscape:zoom="26.909091"
     inkscape:cx="44.724662"
     inkscape:cy="6.5591216"
     inkscape:window-width="1920"
     inkscape:window-height="1017"
     inkscape:window-x="-8"
     inkscape:window-y="-8"
     inkscape:window-maximized="1"
     inkscape:current-layer="svg7">
    <sodipodi:guide
       position="36.158784,10.216216"
       orientation="1,0"
       id="guide7"
       inkscape:locked="false" />
    <sodipodi:guide
       position="39.206081,16.199324"
       orientation="0,-1"
       id="guide8"
       inkscape:locked="false" />
    <sodipodi:guide
       position="42.885135,5.6824324"
       orientation="0,-1"
       id="guide9"
       inkscape:locked="false" />
    <sodipodi:guide
       position="31.179054,4.4560811"
       orientation="0,-1"
       id="guide10"
       inkscape:locked="false" />
    <sodipodi:guide
       position="59.942567,8.8783784"
       orientation="1,0"
       id="guide1"
       inkscape:locked="false" />
  </sodipodi:namedview>
  <path
     d="M0 0H66V23H23C10.2975 23 0 12.7025 0 0Z"
     fill="#00F371"
     fill-opacity="0.1"
     id="path1" />
  <g
     clip-path="url(#clip0_1176_12525)"
     id="g6"
     style="fill:#00f371;fill-opacity:1">
    <path
       d="M29.309 10.3388L30.8157 9.92545C30.8386 9.91921 30.8625 9.91842 30.8857 9.92315C30.9089 9.92789 30.9307 9.93801 30.9495 9.95274C30.9682 9.96746 30.9834 9.98641 30.9939 10.0081C31.0044 10.0298 31.0098 10.0537 31.0098 10.0778V13.4487C31.0099 13.572 30.9794 13.6933 30.9213 13.8013C30.8633 13.9094 30.7794 14.0006 30.6776 14.0667L27.392 16.2113C27.3686 16.2265 27.3417 16.2351 27.3141 16.236C27.2864 16.237 27.259 16.2303 27.2347 16.2167C27.2104 16.203 27.1901 16.183 27.1761 16.1586C27.162 16.1342 27.1545 16.1064 27.1546 16.0781V14.1093C27.1546 14.0828 27.1611 14.0568 27.1736 14.0336C27.186 14.0104 27.2039 13.9908 27.2256 13.9765L29.0519 12.7784C29.0957 12.7499 29.1318 12.7106 29.1567 12.664C29.1817 12.6174 29.1948 12.5652 29.1947 12.5121V10.4911C29.1947 10.4564 29.2059 10.4227 29.2266 10.3951C29.2472 10.3676 29.2762 10.3478 29.309 10.3388Z"
       fill="#00F371"
       id="path2"
       style="fill:#00f371;fill-opacity:1" />
    <path
       d="M21.1744 10.3388L19.6679 9.92545C19.6451 9.91921 19.6211 9.91843 19.5979 9.92316C19.5747 9.92789 19.5529 9.93801 19.5341 9.95274C19.5153 9.96746 19.5001 9.9864 19.4896 10.0081C19.4791 10.0298 19.4737 10.0536 19.4736 10.0778V13.4487C19.4737 13.572 19.5041 13.6933 19.5622 13.8013C19.6203 13.9093 19.7041 14.0006 19.8058 14.0667L23.0915 16.2113C23.1148 16.2265 23.1417 16.2351 23.1694 16.236C23.1971 16.237 23.2245 16.2303 23.2488 16.2167C23.2731 16.203 23.2933 16.183 23.3074 16.1586C23.3215 16.1342 23.3289 16.1064 23.3289 16.0781V14.1093C23.3289 14.0828 23.3224 14.0568 23.31 14.0336C23.2976 14.0104 23.2798 13.9908 23.258 13.9765L21.4318 12.7784C21.3879 12.7499 21.3518 12.7106 21.3268 12.664C21.3018 12.6175 21.2887 12.5652 21.2888 12.5121V10.4911C21.2888 10.4564 21.2776 10.4227 21.2569 10.3951C21.2362 10.3676 21.2072 10.3478 21.1744 10.3388Z"
       fill="#00F371"
       id="path3"
       style="fill:#00f371;fill-opacity:1" />
    <path
       d="M25.6282 16.0479C25.5134 16.1226 25.3802 16.1623 25.2441 16.1623C25.108 16.1623 24.9748 16.1226 24.86 16.0479L19.4736 12.5414V14.4772C19.4738 14.6001 19.5042 14.721 19.5621 14.8287C19.62 14.9364 19.7035 15.0275 19.8049 15.0935L21.103 15.939L23.4518 17.4644L23.4471 17.4676L23.6741 17.6165L24.8588 18.3859C24.9736 18.4606 25.1068 18.5002 25.2428 18.5002C25.3789 18.5002 25.5121 18.4606 25.6269 18.3859L30.6784 15.0939C30.7796 15.0278 30.863 14.9367 30.9208 14.829C30.9786 14.7213 31.009 14.6004 31.0091 14.4776V12.5409L25.6282 16.0479Z"
       fill="#00F371"
       id="path4"
       style="fill:#00f371;fill-opacity:1" />
    <path
       d="M25.0268 11.4057L22.9918 10.8454C22.9689 10.8392 22.9449 10.8383 22.9217 10.8431C22.8984 10.8478 22.8766 10.8579 22.8578 10.8727C22.839 10.8874 22.8238 10.9064 22.8133 10.9282C22.8029 10.9499 22.7974 10.9738 22.7974 10.998V12.0226C22.7974 12.0581 22.8062 12.0929 22.8229 12.124C22.8396 12.1551 22.8637 12.1814 22.893 12.2004L24.9932 13.566C25.0673 13.6141 25.1534 13.6396 25.2412 13.6396C25.329 13.6396 25.415 13.6141 25.4892 13.566L27.5894 12.2006C27.6187 12.1815 27.6428 12.1552 27.6596 12.1241C27.6763 12.093 27.6851 12.0581 27.6851 12.0226V10.9976C27.6851 10.9735 27.6796 10.9496 27.6692 10.9279C27.6587 10.9062 27.6435 10.8873 27.6247 10.8725C27.606 10.8578 27.5842 10.8477 27.561 10.843C27.5378 10.8382 27.5138 10.839 27.491 10.8452L25.4594 11.4055C25.3175 11.4446 25.1687 11.4448 25.0268 11.4057Z"
       fill="#00F371"
       id="path5"
       style="fill:#00f371;fill-opacity:1" />
    <path
       d="M31.0098 7.66033C31.0098 7.59883 30.9946 7.53833 30.9657 7.48441C30.9368 7.43049 30.8951 7.38488 30.8444 7.3518L29.372 6.39297C29.3179 6.35771 29.2556 6.33797 29.1915 6.33581C29.1274 6.33366 29.0639 6.34916 29.0077 6.3807C28.9514 6.41224 28.9045 6.45866 28.8719 6.51509C28.8392 6.57153 28.822 6.63591 28.822 6.7015C28.822 6.78642 28.8056 6.87051 28.7738 6.94897C28.742 7.02743 28.6954 7.09871 28.6367 7.15875C28.578 7.2188 28.5083 7.26642 28.4315 7.2989C28.3548 7.33138 28.2726 7.34809 28.1895 7.34806H27.8197C27.5066 7.34806 27.2063 7.22087 26.985 6.99448C26.7636 6.76808 26.6392 6.46101 26.6392 6.14084V5.44384C26.6392 5.41312 26.6316 5.3829 26.6171 5.35597C26.6027 5.32904 26.5818 5.30627 26.5565 5.28977L25.4362 4.55766C25.3788 4.52017 25.3121 4.50024 25.2439 4.50024C25.1758 4.50024 25.1091 4.52017 25.0516 4.55766L23.927 5.28939C23.9017 5.30594 23.8808 5.32875 23.8663 5.35571C23.8519 5.38266 23.8443 5.41291 23.8443 5.44366V6.14065C23.8443 6.46088 23.7199 6.76799 23.4985 6.99442C23.277 7.22085 22.9767 7.34806 22.6636 7.34806H22.2934C22.1257 7.34806 21.9649 7.27994 21.8463 7.15869C21.7278 7.03743 21.6611 6.87298 21.6611 6.7015C21.6611 6.63591 21.6439 6.57153 21.6112 6.51509C21.5786 6.45866 21.5317 6.41224 21.4754 6.3807C21.4192 6.34916 21.3557 6.33366 21.2916 6.33581C21.2275 6.33797 21.1652 6.35771 21.1111 6.39297L19.6391 7.35124C19.5884 7.38432 19.5467 7.42993 19.5178 7.48385C19.4888 7.53777 19.4737 7.59827 19.4736 7.65977V8.64624C19.4737 8.71564 19.496 8.78309 19.5373 8.83818C19.5785 8.89328 19.6364 8.93294 19.7019 8.95104L24.9223 10.3878C25.1327 10.4458 25.3543 10.4458 25.5646 10.3878L30.7817 8.94805C30.8472 8.92995 30.905 8.89031 30.9462 8.83525C30.9875 8.7802 31.0098 8.71279 31.0098 8.64344V7.66033Z"
       fill="#00F371"
       id="path6"
       style="fill:#00f371;fill-opacity:1" />
  </g>
  <defs
     id="defs7">
    <clipPath
       id="clip0_1176_12525">
      <rect
         width="14"
         height="14"
         fill="white"
         transform="translate(18 4.5)"
         id="rect7" />
    </clipPath>
  </defs>
  <text
     xml:space="preserve"
     style="font-weight:600;font-size:9.58186px;font-family:NanumGothicOTF;-inkscape-font-specification:'NanumGothicOTF Semi-Bold';writing-mode:lr-tb;direction:ltr;fill:#00f371;fill-opacity:1;stroke-width:0.99811"
     x="39.593128"
     y="14.965266"
     id="text7"
     transform="scale(0.99811004,1.0018935)"><tspan
       sodipodi:role="line"
       id="tspan7"
       x="39.593128"
       y="14.965266"
       style="font-size:9.58186px;stroke-width:0.99811">녹색</tspan></text>
</svg>
